<?xml version="1.0" encoding="UTF-8"?>
<svg width="24" height="24" viewBox="0 0 24 24" fill="none" xmlns="http://www.w3.org/2000/svg">
  <path d="M12 24C18.6274 24 24 18.6274 24 12C24 5.37258 18.6274 0 12 0C5.37258 0 0 5.37258 0 12C0 18.6274 5.37258 24 12 24Z" fill="#0052FF"/>
  <path d="M12.0002 4.5C7.85775 4.5 4.50024 7.85751 4.50024 12C4.50024 16.1425 7.85775 19.5 12.0002 19.5C16.1427 19.5 19.5002 16.1425 19.5002 12C19.5002 7.85751 16.1427 4.5 12.0002 4.5ZM12.0002 17.25C9.10524 17.25 6.75024 14.895 6.75024 12C6.75024 9.105 9.10524 6.75 12.0002 6.75C14.8952 6.75 17.2502 9.105 17.2502 12C17.2502 14.895 14.8952 17.25 12.0002 17.25Z" fill="white"/>
</svg> 